<svg width="171" height="43" viewBox="0 0 171 43" fill="none" xmlns="http://www.w3.org/2000/svg">
<path d="M49.0373 15.1V19.728H41.4973V21.938H48.3093V26.566H41.4973V32H36.5573V15.1H49.0373ZM50.2741 13.8H55.2141V32H50.2741V13.8ZM56.4977 13.8H61.8017V17.622H56.4977V13.8ZM56.6797 19H61.6197V32H56.6797V19ZM76.6572 19V32.286C76.6572 33.274 76.3799 34.1407 75.8252 34.886C75.2879 35.6487 74.5252 36.238 73.5372 36.654C72.5492 37.07 71.3879 37.278 70.0532 37.278C68.0599 37.278 66.4132 36.836 65.1132 35.952C63.8306 35.068 63.0679 33.8893 62.8252 32.416H67.8432C67.8779 32.7973 68.0686 33.092 68.4152 33.3C68.7619 33.5253 69.2212 33.638 69.7932 33.638C70.3999 33.638 70.8679 33.508 71.1972 33.248C71.5439 32.988 71.7172 32.624 71.7172 32.156V29.4C71.2839 30.076 70.7379 30.6047 70.0792 30.986C69.4206 31.3673 68.6839 31.558 67.8692 31.558C66.8639 31.558 65.9799 31.2893 65.2172 30.752C64.4719 30.1973 63.8826 29.426 63.4492 28.438C63.0332 27.45 62.8252 26.306 62.8252 25.006C62.8252 23.706 63.0332 22.5707 63.4492 21.6C63.8826 20.6293 64.4719 19.8753 65.2172 19.338C65.9799 18.8007 66.8639 18.532 67.8692 18.532C68.6839 18.532 69.4206 18.7227 70.0792 19.104C70.7379 19.468 71.2839 19.988 71.7172 20.664V19H76.6572ZM67.8432 25.006C67.8432 25.7513 68.0166 26.3407 68.3632 26.774C68.7099 27.19 69.1952 27.398 69.8192 27.398C70.4259 27.398 70.8939 27.19 71.2232 26.774C71.5526 26.3407 71.7172 25.7513 71.7172 25.006C71.7172 24.2433 71.5526 23.6627 71.2232 23.264C70.8939 22.848 70.4259 22.64 69.8192 22.64C69.1952 22.64 68.7099 22.848 68.3632 23.264C68.0166 23.6627 67.8432 24.2433 67.8432 25.006ZM86.7036 24.98C86.7036 24.252 86.5303 23.7233 86.1836 23.394C85.8543 23.0647 85.4036 22.9 84.8316 22.9C84.3289 22.9 83.9043 23.082 83.5576 23.446C83.2283 23.81 83.0636 24.2693 83.0636 24.824V32H78.1236V13.8H83.0636V20.872C83.5489 20.1093 84.1383 19.52 84.8316 19.104C85.5249 18.688 86.2269 18.48 86.9376 18.48C88.3069 18.48 89.4336 18.9567 90.3176 19.91C91.2016 20.846 91.6436 22.1893 91.6436 23.94V32H86.7036V24.98ZM101.223 27.892V32H99.6112C97.9818 32 96.7078 31.5927 95.7892 30.778C94.8878 29.9633 94.4372 28.828 94.4372 27.372V22.848H92.5912V19H94.4372V15.62H99.3772V19H101.223V22.848H99.3772V26.696C99.3772 27.4933 99.7238 27.892 100.417 27.892H101.223Z" fill="#FF0000"/>
<path d="M115.469 15.1V19.728H111.049V32H106.109V19.728H101.689V15.1H115.469ZM116.459 19H121.399V21.184C121.815 20.404 122.309 19.806 122.881 19.39C123.453 18.9567 124.034 18.74 124.623 18.74H125.663V23.784H124.649C123.748 23.784 122.977 23.9833 122.335 24.382C121.711 24.7633 121.399 25.2573 121.399 25.864V32H116.459V19ZM139.591 27.632C139.591 28.5333 139.652 29.3913 139.773 30.206C139.895 31.0033 140.051 31.6013 140.241 32H135.249C135.128 31.7747 135.024 31.4973 134.937 31.168C134.851 30.8213 134.781 30.466 134.729 30.102C134.383 30.83 133.889 31.3933 133.247 31.792C132.606 32.1733 131.835 32.364 130.933 32.364C130.101 32.364 129.356 32.182 128.697 31.818C128.039 31.454 127.519 30.9513 127.137 30.31C126.773 29.6513 126.591 28.9147 126.591 28.1C126.591 25.5173 127.978 24.1567 130.751 24.018L133.767 23.862C134.097 23.8273 134.322 23.758 134.443 23.654C134.582 23.5327 134.651 23.3593 134.651 23.134V23.082C134.651 22.7873 134.504 22.536 134.209 22.328C133.932 22.12 133.603 22.016 133.221 22.016C132.337 22.016 131.843 22.406 131.739 23.186H126.695C126.765 22.25 127.077 21.4353 127.631 20.742C128.203 20.0487 128.975 19.5113 129.945 19.13C130.916 18.7487 132.025 18.558 133.273 18.558C134.556 18.558 135.665 18.7747 136.601 19.208C137.555 19.6413 138.291 20.2567 138.811 21.054C139.331 21.834 139.591 22.7527 139.591 23.81V27.632ZM131.583 27.554C131.583 27.8487 131.713 28.0913 131.973 28.282C132.233 28.4727 132.554 28.568 132.935 28.568C133.403 28.568 133.802 28.4207 134.131 28.126C134.478 27.8313 134.651 27.476 134.651 27.06V26.514L132.649 26.592C131.939 26.6267 131.583 26.9473 131.583 27.554ZM140.792 25.448C140.792 24.044 141.078 22.822 141.65 21.782C142.222 20.742 143.028 19.936 144.068 19.364C145.125 18.7747 146.347 18.48 147.734 18.48C148.999 18.48 150.117 18.714 151.088 19.182C152.076 19.65 152.864 20.3347 153.454 21.236C154.06 22.12 154.407 23.2033 154.494 24.486H149.476C149.458 23.7927 149.294 23.316 148.982 23.056C148.67 22.7787 148.254 22.64 147.734 22.64C147.127 22.64 146.65 22.8827 146.304 23.368C145.974 23.8533 145.81 24.5467 145.81 25.448C145.81 26.3493 145.974 27.0513 146.304 27.554C146.65 28.0567 147.127 28.308 147.734 28.308C148.236 28.308 148.644 28.1953 148.956 27.97C149.285 27.7447 149.458 27.32 149.476 26.696H154.494C154.32 28.568 153.618 29.998 152.388 30.986C151.157 31.974 149.606 32.468 147.734 32.468C146.347 32.468 145.134 32.1733 144.094 31.584C143.054 30.9947 142.239 30.18 141.65 29.14C141.078 28.0827 140.792 26.852 140.792 25.448ZM163.9 19H170.01L165.59 24.876L170.478 32H164.758L161.898 27.502L160.676 29.088V32H155.736V13.8H160.676V23.836L163.9 19Z" fill="black"/>
<path d="M15.9374 10.7875V11.4975C15.9374 11.915 16.1224 12.31 16.4437 12.5775L17.7787 13.69C18.3312 14.1512 18.4474 14.9525 18.0487 15.5525L17.4112 16.51C17.064 17.0302 16.5534 17.42 15.9599 17.6175L15.7812 17.6775C15.5795 17.7449 15.3961 17.8579 15.2451 18.0078C15.0942 18.1576 14.9798 18.3402 14.9109 18.5414C14.842 18.7426 14.8204 18.957 14.8477 19.1679C14.8751 19.3788 14.9507 19.5805 15.0687 19.7575C15.5299 20.4512 15.2799 21.3912 14.5349 21.7637L11.2499 23.4062L11.7787 24.73C11.8853 24.9988 11.8908 25.2973 11.7942 25.5699C11.6976 25.8425 11.5053 26.0708 11.2531 26.2124C11.001 26.3541 10.706 26.3995 10.4229 26.3402C10.1398 26.2809 9.88782 26.1209 9.7137 25.89L8.86495 24.7575C8.7211 24.5658 8.53065 24.414 8.31168 24.3166C8.0927 24.2192 7.85246 24.1794 7.61377 24.201C7.37508 24.2225 7.14586 24.3047 6.94786 24.4397C6.74986 24.5747 6.58965 24.7581 6.48245 24.9725L5.62495 26.6875L4.85995 26.8787M15.9374 10.7875C13.9613 10.6217 11.9764 10.9824 10.1839 11.8308C8.39139 12.6792 6.85501 13.9863 5.73044 15.6198C4.60586 17.2532 3.93305 19.1549 3.78018 21.1321C3.62731 23.1093 3.99982 25.0918 4.85995 26.8787M15.9374 10.7875C17.8971 10.9509 19.7796 11.6264 21.3974 12.7442C23.0152 13.862 24.3118 15.3843 25.1579 17.1594C26.0039 18.9345 26.3699 20.9004 26.2194 22.861C26.0689 24.8217 25.4071 26.7086 24.2999 28.3337L24.0787 27.6725C23.8919 27.1125 23.5336 26.6255 23.0546 26.2804C22.5757 25.9354 22.0003 25.7498 21.4099 25.75H20.6249L20.2199 25.345C20.0165 25.1412 19.7675 24.9887 19.4936 24.9001C19.2196 24.8115 18.9285 24.7893 18.6443 24.8353C18.36 24.8813 18.0908 24.9943 17.8588 25.1648C17.6268 25.3354 17.4387 25.5587 17.3099 25.8162L17.2649 25.9075C17.1422 26.1533 16.9697 26.3709 16.7584 26.5465C16.5471 26.7221 16.3016 26.8518 16.0374 26.9275L14.7999 27.28C14.1124 27.4762 13.6824 28.1575 13.7999 28.8637L13.8912 29.4112C13.9912 30.0037 14.5037 30.4375 15.1037 30.4375C16.1612 30.4375 17.1012 31.115 17.4349 32.1187L17.7037 32.9225M4.85995 26.8787C5.98045 29.2085 7.86915 31.0812 10.2083 32.182C12.5475 33.2827 15.1944 33.5442 17.7037 32.9225M17.7037 32.9225C20.3911 32.2558 22.7389 30.6227 24.2987 28.335M19.6874 18.25C19.6874 19.37 19.1962 20.375 18.4174 21.0625" stroke="black" stroke-width="2" stroke-linecap="round" stroke-linejoin="round"/>
</svg>
